<svg xmlns="http://www.w3.org/2000/svg" viewBox="0 0 1080 885.76"><defs><style>.cls-1{opacity:0.8;}.cls-2{fill:#eaf3fa;opacity:0.5;}.cls-27,.cls-3{fill:#1b1464;}.cls-4{fill:#4ba9ef;}.cls-5{fill:#99c8f1;}.cls-6{fill:#cfe5f8;}.cls-7{fill:#85c5fe;}.cls-8{fill:#c6e4ff;}.cls-9{fill:#fff;}.cls-10{fill:#e2aee0;}.cls-11,.cls-28{fill:#0dd6fa;}.cls-12{fill:#ffe7ff;}.cls-13{fill:#ffbfe0;}.cls-14{fill:#fff4fc;}.cls-15{fill:#ffe8f9;}.cls-16{fill:#006ece;}.cls-17{fill:#83967f;}.cls-18{fill:#c3ad7f;}.cls-19{fill:#243645;}.cls-20{fill:#fff4ff;}.cls-21{fill:#5eaffd;}.cls-22{fill:#b3d4f2;}.cls-23{fill:#dbebf9;}.cls-24{fill:#bf2604;}.cls-25{fill:#c8a0eb;}.cls-26{fill:#e0cefe;}.cls-27,.cls-28{stroke:#fff;stroke-miterlimit:10;stroke-width:2px;}.cls-29{fill:none;}</style></defs><title>Ativo 13</title><g id="Camada_2" data-name="Camada 2"><g id="Camada_2-2" data-name="Camada 2"><g class="cls-1"><path class="cls-2" d="M1024,250c-68.46-105.9-189.77,7.25-314.43,32s-70-10.59-234.23,1.36c-79.88,5.82-127.74,34.42-156.4,65.95a81.91,81.91,0,0,1,27.55-4.62c15,0,29.15,3.73,39.66,10.33a43.2,43.2,0,0,1,4.55-.24c16.3,0,29.55,8.37,29.55,18.64a12.75,12.75,0,0,1-2,6.67H296.8c-19.23,34.24-20.48,64.31-20.48,64.31C59.74,440.21,33.46,574.09,40.4,652.35c.45,5.09,1,9.9,1.62,14.41a271.06,271.06,0,0,0,7.2,36.12c.12.41,47,27.69,82.67,12.42,62.18-26.62,164.48,20.63,276,28.07,28.28,1.88,57.15,1.21,86.1-3.87,49.18-8.64,98.87-3.82,147.07,3.61,73.74,11.36,144,28.82,203.73,13.44,172.7-44.5,207.36-21.51,207.36-21.51,2.39-2.11,11-49.36,13.41-73.94.17-1.67.33-3.38.49-5.13,1.24-13.32,2.36-28.92,3.23-46.14C1074.83,499.27,1070.37,321.68,1024,250ZM706.29,351.15H493.72a53.85,53.85,0,0,1,19.91-3.88c6.76-10.15,22.53-16.92,40.44-16.92,10.75,0,20.95,2.52,28.81,6.83,8.75-12.61,28.85-21.43,51.62-21.43,15,0,29.15,3.72,39.66,10.31,1.51-.14,3-.22,4.55-.22,16.29,0,29.55,8.36,29.55,18.64A12.67,12.67,0,0,1,706.29,351.15Z"/><path class="cls-3" d="M795.5,683.2H684.87V496.61l63.18-63.18H795.5V683.2"/><polyline class="cls-3" points="795.5 509.28 740.18 509.28 740.18 340.2 795.5 340.2 795.5 509.28"/><path class="cls-4" d="M584.87,658.93H474.25V575.7l45.32-45.33h65.3V658.93"/><polyline class="cls-4" points="584.87 565.8 529.56 565.8 529.56 486.82 584.87 486.82 584.87 565.8"/><path class="cls-4" d="M570.07,675.47H719.56a3.21,3.21,0,0,0,3.2-3.21V399a3.2,3.2,0,0,0-3.2-3.2H570.07a3.2,3.2,0,0,0-3.2,3.2V672.26a3.21,3.21,0,0,0,3.2,3.21"/><path class="cls-5" d="M569.62,675.47H679.16a2.75,2.75,0,0,0,2.75-2.75V398.56a2.75,2.75,0,0,0-2.75-2.75H569.62a2.75,2.75,0,0,0-2.75,2.75V672.72a2.75,2.75,0,0,0,2.75,2.75"/><path class="cls-6" d="M671.75,420.31h-95.1a4.69,4.69,0,0,1-4.69-4.69v-2.41a4.69,4.69,0,0,1,4.69-4.68h95.1a4.69,4.69,0,0,1,4.69,4.68v2.41a4.69,4.69,0,0,1-4.69,4.69"/><path class="cls-6" d="M671.75,438.29h-95.1A4.69,4.69,0,0,1,572,433.6v-2.41a4.69,4.69,0,0,1,4.69-4.69h95.1a4.69,4.69,0,0,1,4.69,4.69v2.41a4.69,4.69,0,0,1-4.69,4.69"/><path class="cls-6" d="M671.75,456.26h-95.1a4.69,4.69,0,0,1-4.69-4.69v-2.41a4.69,4.69,0,0,1,4.69-4.69h95.1a4.69,4.69,0,0,1,4.69,4.69v2.41a4.69,4.69,0,0,1-4.69,4.69"/><path class="cls-6" d="M671.93,474.23H576.84a4.69,4.69,0,0,1-4.69-4.68v-2.42a4.69,4.69,0,0,1,4.69-4.69h95.09a4.7,4.7,0,0,1,4.7,4.69v2.42a4.7,4.7,0,0,1-4.7,4.68"/><path class="cls-6" d="M671.93,492.2H576.84a4.69,4.69,0,0,1-4.69-4.68V485.1a4.69,4.69,0,0,1,4.69-4.69h95.09a4.7,4.7,0,0,1,4.7,4.69v2.42a4.7,4.7,0,0,1-4.7,4.68"/><path class="cls-6" d="M671.93,508.2H576.84a4.69,4.69,0,0,1-4.69-4.69V501.1a4.69,4.69,0,0,1,4.69-4.69h95.09a4.7,4.7,0,0,1,4.7,4.69v2.41a4.7,4.7,0,0,1-4.7,4.69"/><path class="cls-6" d="M671.75,528.14H645.2c-1.77-2.46-3.1-4-3.36-4.27h0l0,0,0,0h0a50.27,50.27,0,0,0-3.41,4.31H576.65a4.68,4.68,0,0,1-4.69-4.68v-2.41a4.69,4.69,0,0,1,4.69-4.69h95.1a4.69,4.69,0,0,1,4.69,4.69v2.41a4.68,4.68,0,0,1-4.69,4.68"/><path class="cls-6" d="M671.75,546.12H654.38a61.78,61.78,0,0,0-5.22-11.79h22.59a4.69,4.69,0,0,1,4.69,4.69v2.41a4.69,4.69,0,0,1-4.69,4.69m-42.56,0H576.65a4.69,4.69,0,0,1-4.69-4.69V539a4.69,4.69,0,0,1,4.69-4.69h57.76a61.78,61.78,0,0,0-5.22,11.79"/><path class="cls-6" d="M671.75,564.09H656.54c.06-1.34.1-2.71.1-4.09a43.06,43.06,0,0,0-.72-7.7h15.83a4.69,4.69,0,0,1,4.69,4.69v2.41a4.69,4.69,0,0,1-4.69,4.69m-44.72,0H576.65A4.69,4.69,0,0,1,572,559.4V557a4.69,4.69,0,0,1,4.69-4.69h51a43.06,43.06,0,0,0-.72,7.7h0v.14s0,.06,0,.09v1.08a.13.13,0,0,1,0,.06v.46s0,0,0,0v.34a.17.17,0,0,0,0,.07v.27a.25.25,0,0,0,0,.08v.26a.31.31,0,0,1,0,.1h0v.11h0l0,.69h0v.11h0a.34.34,0,0,0,0,.1v.06"/><path class="cls-6" d="M671.75,582.06h-18.2A65.38,65.38,0,0,0,656,570.27h15.73a4.69,4.69,0,0,1,4.69,4.69v2.41a4.69,4.69,0,0,1-4.69,4.69m-41.73,0H576.65a4.69,4.69,0,0,1-4.69-4.69V575a4.69,4.69,0,0,1,4.69-4.69h50.9A65.38,65.38,0,0,0,630,582.06"/><path class="cls-6" d="M671.75,600h-95.1a4.7,4.7,0,0,1-4.69-4.69v-2.41a4.68,4.68,0,0,1,4.69-4.69h55.86c.18.34.35.67.54,1h0l0,.06h0l0,.06h0l0,0h0l0,.06h0l0,0h0l0,.05v0l0,0,0,0,0,0v0l0,0,0,0a.05.05,0,0,0,0,0l0,0a.08.08,0,0,0,0,0l0,0,0,0,0,0v0l0,0v0l0,0h0c2.35,3.81,5.18,6,8.21,6,3.51,0,6.74-3,9.28-7.91h20.69a4.68,4.68,0,0,1,4.69,4.69v2.41a4.7,4.7,0,0,1-4.69,4.69"/><path class="cls-6" d="M602.7,618H576.65a4.69,4.69,0,0,1-4.69-4.7v-2.4a4.69,4.69,0,0,1,4.69-4.69h95.1a4.89,4.89,0,0,1,1.15.14c-23.43.24-47.2,5.1-70.2,11.65"/><path class="cls-4" d="M999.6,675.47H767.86a4.77,4.77,0,0,1-4.77-4.77V130.07a4.77,4.77,0,0,1,4.77-4.77H999.6a4.77,4.77,0,0,1,4.77,4.77V670.7a4.77,4.77,0,0,1-4.77,4.77"/><path class="cls-7" d="M922.48,675.47H767a3.93,3.93,0,0,1-3.93-3.92V129.22A3.92,3.92,0,0,1,767,125.3H922.48a3.92,3.92,0,0,1,3.93,3.92V671.55a3.93,3.93,0,0,1-3.93,3.92"/><path class="cls-8" d="M889.61,640.17V151.73a12,12,0,1,1,24.08,0V376.12h-9.23a4.74,4.74,0,0,0-4.74,4.73V639.34c-3.35.33-6.71.61-10.11.83"/><path class="cls-7" d="M904.46,686.53h142.92a4.74,4.74,0,0,0,4.74-4.74V380.85a4.74,4.74,0,0,0-4.74-4.73H904.46a4.74,4.74,0,0,0-4.74,4.73V681.79a4.74,4.74,0,0,0,4.74,4.74Z"/><path class="cls-4" d="M1046.1,376.12h-28.65c3.33,0,6,1.67,6,3.72v303c0,2.06-2.69,3.73-6,3.73h28.65c3.32,0,6-1.67,6-3.73v-303c0-2-2.7-3.72-6-3.72Z"/><path class="cls-9" d="M907.13,394.29h19.28a2.56,2.56,0,0,0,2.56-2.56v-3a2.56,2.56,0,0,0-2.56-2.56H907.13a2.56,2.56,0,0,0-2.56,2.56v3a2.56,2.56,0,0,0,2.56,2.56Z"/><path class="cls-9" d="M994.73,394.29H1014a2.55,2.55,0,0,0,2.55-2.56v-3a2.56,2.56,0,0,0-2.55-2.56H994.73a2.56,2.56,0,0,0-2.56,2.56v3a2.56,2.56,0,0,0,2.56,2.56Z"/><path class="cls-9" d="M965.53,394.29h19.28a2.56,2.56,0,0,0,2.56-2.56v-3a2.56,2.56,0,0,0-2.56-2.56H965.53a2.56,2.56,0,0,0-2.56,2.56v3a2.56,2.56,0,0,0,2.56,2.56Z"/><path class="cls-9" d="M936.33,394.29h19.28a2.56,2.56,0,0,0,2.56-2.56v-3a2.56,2.56,0,0,0-2.56-2.56H936.33a2.56,2.56,0,0,0-2.56,2.56v3a2.56,2.56,0,0,0,2.56,2.56Z"/><path class="cls-9" d="M907.13,415.39h19.28a2.56,2.56,0,0,0,2.56-2.56v-3a2.56,2.56,0,0,0-2.56-2.56H907.13a2.56,2.56,0,0,0-2.56,2.56v3a2.56,2.56,0,0,0,2.56,2.56Z"/><path class="cls-9" d="M994.73,415.39H1014a2.56,2.56,0,0,0,2.55-2.56v-3a2.55,2.55,0,0,0-2.55-2.56H994.73a2.56,2.56,0,0,0-2.56,2.56v3a2.56,2.56,0,0,0,2.56,2.56Z"/><path class="cls-9" d="M965.53,415.39h19.28a2.56,2.56,0,0,0,2.56-2.56v-3a2.56,2.56,0,0,0-2.56-2.56H965.53a2.56,2.56,0,0,0-2.56,2.56v3a2.56,2.56,0,0,0,2.56,2.56Z"/><path class="cls-9" d="M936.33,415.39h19.28a2.56,2.56,0,0,0,2.56-2.56v-3a2.56,2.56,0,0,0-2.56-2.56H936.33a2.56,2.56,0,0,0-2.56,2.56v3a2.56,2.56,0,0,0,2.56,2.56Z"/><path class="cls-9" d="M907.13,436.48h19.28a2.56,2.56,0,0,0,2.56-2.56v-3a2.56,2.56,0,0,0-2.56-2.56H907.13a2.56,2.56,0,0,0-2.56,2.56v3a2.56,2.56,0,0,0,2.56,2.56Z"/><path class="cls-9" d="M994.73,436.48H1014a2.56,2.56,0,0,0,2.55-2.56v-3a2.55,2.55,0,0,0-2.55-2.56H994.73a2.56,2.56,0,0,0-2.56,2.56v3a2.56,2.56,0,0,0,2.56,2.56Z"/><path class="cls-9" d="M965.53,436.48h19.28a2.56,2.56,0,0,0,2.56-2.56v-3a2.56,2.56,0,0,0-2.56-2.56H965.53A2.56,2.56,0,0,0,963,431v3a2.56,2.56,0,0,0,2.56,2.56Z"/><path class="cls-9" d="M936.33,436.48h19.28a2.56,2.56,0,0,0,2.56-2.56v-3a2.56,2.56,0,0,0-2.56-2.56H936.33a2.56,2.56,0,0,0-2.56,2.56v3a2.56,2.56,0,0,0,2.56,2.56Z"/><path class="cls-9" d="M907.13,457.57h19.28A2.56,2.56,0,0,0,929,455v-3a2.56,2.56,0,0,0-2.56-2.56H907.13a2.56,2.56,0,0,0-2.56,2.56v3a2.56,2.56,0,0,0,2.56,2.56Z"/><path class="cls-9" d="M994.73,457.57H1014a2.56,2.56,0,0,0,2.55-2.56v-3a2.56,2.56,0,0,0-2.55-2.56H994.73a2.56,2.56,0,0,0-2.56,2.56v3a2.56,2.56,0,0,0,2.56,2.56Z"/><path class="cls-9" d="M965.53,457.57h19.28a2.56,2.56,0,0,0,2.56-2.56v-3a2.56,2.56,0,0,0-2.56-2.56H965.53a2.56,2.56,0,0,0-2.56,2.56v3a2.56,2.56,0,0,0,2.56,2.56Z"/><path class="cls-9" d="M936.33,457.57h19.28a2.56,2.56,0,0,0,2.56-2.56v-3a2.56,2.56,0,0,0-2.56-2.56H936.33a2.56,2.56,0,0,0-2.56,2.56v3a2.56,2.56,0,0,0,2.56,2.56Z"/><path class="cls-9" d="M907.13,478.66h19.28A2.56,2.56,0,0,0,929,476.1v-3a2.56,2.56,0,0,0-2.56-2.56H907.13a2.56,2.56,0,0,0-2.56,2.56v3a2.56,2.56,0,0,0,2.56,2.56Z"/><path class="cls-9" d="M994.73,478.66H1014a2.55,2.55,0,0,0,2.55-2.56v-3a2.56,2.56,0,0,0-2.55-2.56H994.73a2.56,2.56,0,0,0-2.56,2.56v3a2.56,2.56,0,0,0,2.56,2.56Z"/><path class="cls-9" d="M965.53,478.66h19.28a2.56,2.56,0,0,0,2.56-2.56v-3a2.56,2.56,0,0,0-2.56-2.56H965.53a2.56,2.56,0,0,0-2.56,2.56v3a2.56,2.56,0,0,0,2.56,2.56Z"/><path class="cls-9" d="M936.33,478.66h19.28a2.56,2.56,0,0,0,2.56-2.56v-3a2.56,2.56,0,0,0-2.56-2.56H936.33a2.56,2.56,0,0,0-2.56,2.56v3a2.56,2.56,0,0,0,2.56,2.56Z"/><path class="cls-9" d="M907.13,499.75h19.28a2.56,2.56,0,0,0,2.56-2.56v-2.95a2.57,2.57,0,0,0-2.56-2.57H907.13a2.57,2.57,0,0,0-2.56,2.57v2.95a2.56,2.56,0,0,0,2.56,2.56Z"/><path class="cls-9" d="M994.73,499.75H1014a2.55,2.55,0,0,0,2.55-2.56v-2.95a2.56,2.56,0,0,0-2.55-2.57H994.73a2.57,2.57,0,0,0-2.56,2.57v2.95a2.56,2.56,0,0,0,2.56,2.56Z"/><path class="cls-9" d="M965.53,499.75h19.28a2.56,2.56,0,0,0,2.56-2.56v-2.95a2.57,2.57,0,0,0-2.56-2.57H965.53a2.57,2.57,0,0,0-2.56,2.57v2.95a2.56,2.56,0,0,0,2.56,2.56Z"/><path class="cls-9" d="M936.33,499.75h19.28a2.56,2.56,0,0,0,2.56-2.56v-2.95a2.57,2.57,0,0,0-2.56-2.57H936.33a2.57,2.57,0,0,0-2.56,2.57v2.95a2.56,2.56,0,0,0,2.56,2.56Z"/><path class="cls-9" d="M907.13,520.84h19.28a2.56,2.56,0,0,0,2.56-2.55v-3a2.56,2.56,0,0,0-2.56-2.56H907.13a2.56,2.56,0,0,0-2.56,2.56v3a2.56,2.56,0,0,0,2.56,2.55Z"/><path class="cls-9" d="M994.73,520.84H1014a2.55,2.55,0,0,0,2.55-2.55v-3a2.55,2.55,0,0,0-2.55-2.56H994.73a2.56,2.56,0,0,0-2.56,2.56v3a2.56,2.56,0,0,0,2.56,2.55Z"/><path class="cls-9" d="M965.53,520.84h19.28a2.56,2.56,0,0,0,2.56-2.55v-3a2.56,2.56,0,0,0-2.56-2.56H965.53a2.56,2.56,0,0,0-2.56,2.56v3a2.56,2.56,0,0,0,2.56,2.55Z"/><path class="cls-9" d="M936.33,520.84h19.28a2.56,2.56,0,0,0,2.56-2.55v-3a2.56,2.56,0,0,0-2.56-2.56H936.33a2.56,2.56,0,0,0-2.56,2.56v3a2.56,2.56,0,0,0,2.56,2.55Z"/><path class="cls-9" d="M907.13,541.94h19.28a2.56,2.56,0,0,0,2.56-2.56v-3a2.56,2.56,0,0,0-2.56-2.56H907.13a2.56,2.56,0,0,0-2.56,2.56v3a2.56,2.56,0,0,0,2.56,2.56Z"/><path class="cls-9" d="M994.73,541.94H1014a2.56,2.56,0,0,0,2.55-2.56v-3a2.55,2.55,0,0,0-2.55-2.56H994.73a2.56,2.56,0,0,0-2.56,2.56v3a2.56,2.56,0,0,0,2.56,2.56Z"/><path class="cls-9" d="M965.53,541.94h19.28a2.56,2.56,0,0,0,2.56-2.56v-3a2.56,2.56,0,0,0-2.56-2.56H965.53a2.56,2.56,0,0,0-2.56,2.56v3a2.56,2.56,0,0,0,2.56,2.56Z"/><path class="cls-9" d="M936.33,541.94h19.28a2.56,2.56,0,0,0,2.56-2.56v-3a2.56,2.56,0,0,0-2.56-2.56H936.33a2.56,2.56,0,0,0-2.56,2.56v3a2.56,2.56,0,0,0,2.56,2.56Z"/><path class="cls-9" d="M907.13,563h19.28a2.56,2.56,0,0,0,2.56-2.56v-3a2.56,2.56,0,0,0-2.56-2.56H907.13a2.56,2.56,0,0,0-2.56,2.56v3a2.56,2.56,0,0,0,2.56,2.56Z"/><path class="cls-9" d="M994.73,563H1014a2.55,2.55,0,0,0,2.55-2.56v-3A2.56,2.56,0,0,0,1014,555H994.73a2.56,2.56,0,0,0-2.56,2.56v3a2.56,2.56,0,0,0,2.56,2.56Z"/><path class="cls-9" d="M965.53,563h19.28a2.56,2.56,0,0,0,2.56-2.56v-3a2.56,2.56,0,0,0-2.56-2.56H965.53a2.56,2.56,0,0,0-2.56,2.56v3a2.56,2.56,0,0,0,2.56,2.56Z"/><path class="cls-9" d="M936.33,563h19.28a2.56,2.56,0,0,0,2.56-2.56v-3a2.56,2.56,0,0,0-2.56-2.56H936.33a2.56,2.56,0,0,0-2.56,2.56v3a2.56,2.56,0,0,0,2.56,2.56Z"/><path class="cls-9" d="M907.13,584.12h19.28a2.56,2.56,0,0,0,2.56-2.56v-3a2.56,2.56,0,0,0-2.56-2.55H907.13a2.56,2.56,0,0,0-2.56,2.55v3a2.56,2.56,0,0,0,2.56,2.56Z"/><path class="cls-9" d="M994.73,584.12H1014a2.55,2.55,0,0,0,2.55-2.56v-3a2.55,2.55,0,0,0-2.55-2.55H994.73a2.56,2.56,0,0,0-2.56,2.55v3a2.56,2.56,0,0,0,2.56,2.56Z"/><path class="cls-9" d="M965.53,584.12h19.28a2.56,2.56,0,0,0,2.56-2.56v-3a2.56,2.56,0,0,0-2.56-2.55H965.53A2.56,2.56,0,0,0,963,578.6v3a2.56,2.56,0,0,0,2.56,2.56"/><path class="cls-9" d="M936.33,584.12h19.28a2.56,2.56,0,0,0,2.56-2.56v-3a2.56,2.56,0,0,0-2.56-2.55H936.33a2.56,2.56,0,0,0-2.56,2.55v3a2.56,2.56,0,0,0,2.56,2.56"/><path class="cls-9" d="M907.13,605.22h19.28a2.57,2.57,0,0,0,2.56-2.57V599.7a2.56,2.56,0,0,0-2.56-2.56H907.13a2.56,2.56,0,0,0-2.56,2.56v2.95a2.57,2.57,0,0,0,2.56,2.57Z"/><path class="cls-9" d="M994.73,605.22H1014a2.56,2.56,0,0,0,2.55-2.57V599.7a2.55,2.55,0,0,0-2.55-2.56H994.73a2.56,2.56,0,0,0-2.56,2.56v2.95a2.57,2.57,0,0,0,2.56,2.57Z"/><path class="cls-9" d="M965.53,605.22h19.28a2.57,2.57,0,0,0,2.56-2.57V599.7a2.56,2.56,0,0,0-2.56-2.56H965.53A2.56,2.56,0,0,0,963,599.7v2.95a2.57,2.57,0,0,0,2.56,2.57Z"/><path class="cls-9" d="M936.33,605.22h19.28a2.57,2.57,0,0,0,2.56-2.57V599.7a2.56,2.56,0,0,0-2.56-2.56H936.33a2.56,2.56,0,0,0-2.56,2.56v2.95a2.57,2.57,0,0,0,2.56,2.57"/><path class="cls-9" d="M907.13,626.31h19.28a2.56,2.56,0,0,0,2.56-2.56v-3a2.56,2.56,0,0,0-2.56-2.56H907.13a2.56,2.56,0,0,0-2.56,2.56v3a2.56,2.56,0,0,0,2.56,2.56Z"/><path class="cls-9" d="M994.73,626.31H1014a2.56,2.56,0,0,0,2.55-2.56v-3a2.55,2.55,0,0,0-2.55-2.56H994.73a2.56,2.56,0,0,0-2.56,2.56v3a2.56,2.56,0,0,0,2.56,2.56Z"/><path class="cls-9" d="M965.53,626.31h19.28a2.56,2.56,0,0,0,2.56-2.56v-3a2.56,2.56,0,0,0-2.56-2.56H965.53a2.56,2.56,0,0,0-2.56,2.56v3a2.56,2.56,0,0,0,2.56,2.56Z"/><path class="cls-9" d="M936.33,626.31h19.28a2.56,2.56,0,0,0,2.56-2.56v-3a2.56,2.56,0,0,0-2.56-2.56H936.33a2.56,2.56,0,0,0-2.56,2.56v3a2.56,2.56,0,0,0,2.56,2.56"/><path class="cls-9" d="M907.13,647.4h19.28a2.56,2.56,0,0,0,2.56-2.56v-3a2.56,2.56,0,0,0-2.56-2.56H907.13a2.56,2.56,0,0,0-2.56,2.56v3a2.56,2.56,0,0,0,2.56,2.56Z"/><path class="cls-9" d="M994.73,647.4H1014a2.56,2.56,0,0,0,2.55-2.56v-3a2.56,2.56,0,0,0-2.55-2.56H994.73a2.56,2.56,0,0,0-2.56,2.56v3a2.56,2.56,0,0,0,2.56,2.56Z"/><path class="cls-9" d="M965.53,647.4h19.28a2.56,2.56,0,0,0,2.56-2.56v-3a2.56,2.56,0,0,0-2.56-2.56H965.53a2.56,2.56,0,0,0-2.56,2.56v3a2.56,2.56,0,0,0,2.56,2.56Z"/><path class="cls-9" d="M936.33,647.4h19.28a2.56,2.56,0,0,0,2.56-2.56v-3a2.56,2.56,0,0,0-2.56-2.56H936.33a2.56,2.56,0,0,0-2.56,2.56v3a2.56,2.56,0,0,0,2.56,2.56Z"/><path class="cls-9" d="M907.13,668.49h19.28a2.56,2.56,0,0,0,2.56-2.56v-3a2.56,2.56,0,0,0-2.56-2.56H907.13a2.56,2.56,0,0,0-2.56,2.56v3a2.56,2.56,0,0,0,2.56,2.56Z"/><path class="cls-9" d="M994.73,668.49H1014a2.55,2.55,0,0,0,2.55-2.56v-3a2.56,2.56,0,0,0-2.55-2.56H994.73a2.56,2.56,0,0,0-2.56,2.56v3a2.56,2.56,0,0,0,2.56,2.56Z"/><path class="cls-9" d="M965.53,668.49h19.28a2.56,2.56,0,0,0,2.56-2.56v-3a2.56,2.56,0,0,0-2.56-2.56H965.53A2.56,2.56,0,0,0,963,663v3a2.56,2.56,0,0,0,2.56,2.56Z"/><path class="cls-9" d="M936.33,668.49h19.28a2.56,2.56,0,0,0,2.56-2.56v-3a2.56,2.56,0,0,0-2.56-2.56H936.33a2.56,2.56,0,0,0-2.56,2.56v3a2.56,2.56,0,0,0,2.56,2.56Z"/><path class="cls-10" d="M1055.82,702.88H49.22A272.07,272.07,0,0,1,42,666.76c-.6-4.5-1.16-9.32-1.61-14.41,34.21,8.28,70.85,15.22,103.92,7.1,13.88-3.41,35.1-6.54,60.22-9.21,34.76-3.7,77-6.52,117.49-8,69.5-2.49,134-1,147.45,7a76.33,76.33,0,0,0,10.85,5.23c28.07,11.08,70,12,95.85,6.19C605.65,654,1055.82,702.88,1055.82,702.88Z"/><path class="cls-11" d="M966.69,597.76c0,13.94-4.64,25.24-10.36,25.24S946,611.7,946,597.76s10.36-25.24,10.36-25.24,10.36,11.3,10.36,25.24"/><path class="cls-12" d="M947.59,611.34h0m0-.13h0m0-.06h0m0-.06h0m0-.07h0m0-.06h0m0-.07h0m0-.06h0m0-.13h0m0-.13h0m0-.07h0m0-.06h0m0-.06h0m0-.07h0m0-.13h0m0-.07h0m0-.06h0m-.07-.27h0m0-.13h0m0-.07h0m0-.07h0m0-.13h0m0-.07h0m0-.06v0m-.11-.55h0m-.3-1.67h0m0-.13v0m0-.14v0m0-.07v0m0-.08v0m0-.06v0m0-.07v0m0-.08v0m0-.07v0m0-.07a0,0,0,0,0,0,0,0,0,0,0,1,0,0m0-.07s0,0,0,0,0,0,0,0m0-.08v0m0-.07a0,0,0,0,1,0,0,0,0,0,0,0,0,0m0-.07v0m0-.07a0,0,0,0,0,0,0,0,0,0,0,1,0,0m0-.08a0,0,0,0,0,0,0,0,0,0,0,1,0,0m0-.07a0,0,0,0,0,0,0,0,0,0,0,1,0,0m0-.07a0,0,0,0,0,0,0,0,0,0,0,1,0,0m0-.07s0,0,0,0,0,0,0,0m0-.08v0m0-.07s0,0,0,0,0,0,0,0m0-.07s0,0,0,0,0,0,0,0m0-.07s0,0,0,0,0,0,0,0m0-.08v0h0s0,0,0,0"/><path class="cls-9" d="M946.42,605.22h0m0-.06a0,0,0,0,0,0,0,0,0,0,0,1,0,0m0-.07v0m0-.08v0m0-.07v0m0-.07v0m0-.08v0m0-.07a0,0,0,0,1,0,0,0,0,0,0,0,0,0m0-.08v0m0-.08v0m0-.07v0m0-.07v0m0-.07v0m0-.08v0m0-.07v0m0-.08v0m0-.07v0m0-.08v0m0-.08v0m0-.07v0m0-.07v0m0-.08v0m0-.08s0,0,0,0,0,0,0,0m0-.07a.06.06,0,0,0,0,0,.06.06,0,0,1,0,0m0-.08v0m0-.08v0m0-.07s0,0,0,0,0,0,0,0m0-.08a0,0,0,0,0,0,0,0,0,0,0,1,0,0m0-.07v0m0-.08v0m0-.08v0m0-.07v0m0-.08v0m0-.07v0m0-.08a.08.08,0,0,1,0,0,.08.08,0,0,0,0,0m0-.08v0m0-.07v0m0-.09s0,0,0,0,0,0,0,0m0-.07v0m0-.08v0m0-.08v0m0-.08v0m0-.07v0m0-.08v0m0-.08s0,0,0,0,0,0,0,0m0-.07v0m0-.08v0m0-.08v0m0-.07v0m0-.08v0m0-.08v0m0-.08v0m0-.08v0m0-.08v0m0-.08v0m0-.07s0,0,0,0,0,0,0,0m0-.08v0m0-.08a.07.07,0,0,0,0,0,.07.07,0,0,1,0,0m0-.08v0m0-.08v0m0-.08a.06.06,0,0,1,0,0,.06.06,0,0,0,0,0m0-.08v0m0-.07v0m0-.09v0m0-.08v0m0-.07v0m0-.08v0m0-.09v0m0-.07v0m0-.08v0m0-.08v0m0-.08v0m0-.08v0m0-.08v0m0-.08v0m0-.08v0m0-.08v0m0-.08v0m0-.08v0m0-.08v0m0-.08v0m0-.08v0m0-.08v0m0-.08v0m0-.09v0m0-.07v0m0-.08v0m0-.09v0m0-.08v0m0-.08v0m0-.08v0m0-.08v0m0-.08v0"/><path class="cls-12" d="M961.38,579.69v0m0-.05,0,0,0,0m0,0,0,0,0,0m0-.05,0,0,0,0m0,0a.1.1,0,0,1,0,0,.1.1,0,0,0,0,0m0,0a43.28,43.28,0,0,0-4.89-6.9,43.28,43.28,0,0,1,4.89,6.9m-4.89-6.9h0m0,0h0"/><path class="cls-13" d="M956.2,623c-3.62-.11-6.79-4.73-8.61-11.66h0l0-.13h0l0-.06h0s0,0,0-.06h0l0-.06h0V611h0s0,0,0-.06h0l0-.06h0l0-.13h0a.2.2,0,0,1,0-.07h0l0-.06h0l0-.06h0v-.06h0l0,0h0a.13.13,0,0,1,0-.06h0v-.06h0a.13.13,0,0,1,0-.06h0l0-.06h0a.35.35,0,0,0,0-.06h0l0-.13h0l0-.13h0a.5.5,0,0,1,0-.12h0s0,0,0-.06h0s0-.05,0-.07h0l0-.12h0l0-.06h0v-.07c0-.18-.07-.35-.1-.53h0c-.11-.55-.21-1.11-.3-1.67h0a.5.5,0,0,1,0-.12v0a.17.17,0,0,0,0-.07h0a.11.11,0,0,0,0,0v-.09a.13.13,0,0,0,0-.06v0s0,0,0,0v0a.06.06,0,0,0,0,0v0s0,0,0-.05v0a.09.09,0,0,1,0,0v0a.06.06,0,0,1,0,0,0,0,0,0,0,0,0v0s0,0,0,0V606a0,0,0,0,1,0,0,.06.06,0,0,0,0,0v-.07a0,0,0,0,0,0,0v0a0,0,0,0,0,0,0v0a0,0,0,0,0,0,0v0a0,0,0,0,0,0,0v0s0,0,0,0v-.11s0,0,0,0v0s0,0,0,0v0s0,0,0,0v0s0,0,0,0h0v-.05a0,0,0,0,0,0,0v-.07a.09.09,0,0,0,0,0v0a.08.08,0,0,0,0,0v0s0,0,0,0v-.15a0,0,0,0,1,0,0v-.23s0,0,0,0v0s0,0,0,0v0a.08.08,0,0,0,0,0v0s0,0,0,0V604a.08.08,0,0,0,0,0v-.19a0,0,0,0,1,0,0v-.16s0,0,0,0v0a.06.06,0,0,0,0,0v-.07s0,0,0,0v-.07s0,0,0,0v0a0,0,0,0,0,0,0v-.08a.08.08,0,0,0,0,0v-.27a0,0,0,0,1,0,0v-.08a.08.08,0,0,1,0,0v-.08a0,0,0,0,1,0,0v-.09s0,0,0,0v-.08s0,0,0,0v-.11a.07.07,0,0,1,0,0v-.23s0,0,0,0v-.08a0,0,0,0,0,0,0v-.51s0,0,0,0v-.15s0,0,0,0v-.11a.07.07,0,0,0,0,0v-.19a.06.06,0,0,1,0,0v-.4s0,0,0,0V600a0,0,0,0,0,0,0v-.29a0,0,0,0,1,0,0v-.29a0,0,0,0,0,0,0v-.45a0,0,0,0,1,0,0v-1.06h0c0-13.94,10.36-25.24,10.36-25.24h0a43.28,43.28,0,0,1,4.89,6.9h0a.1.1,0,0,0,0,0h0l0,0h0l0,0v0l0,0,0,0v0c.62,1.08,1.25,2.27,1.84,3.55-2.64,3.32-9.3,12.8-9.3,24A51.4,51.4,0,0,0,956.2,623"/><polygon class="cls-11" points="958.25 633.55 955.48 633.55 955.48 615.96 958.25 615.96 958.25 633.55 958.25 633.55"/><path class="cls-11" d="M684.87,574.81c0,13.94-4.64,25.24-10.36,25.24s-10.36-11.3-10.36-25.24,10.36-25.24,10.36-25.24,10.36,11.3,10.36,25.24Z"/><polygon class="cls-11" points="676.44 610.6 673.66 610.6 673.66 593 676.44 593 676.44 610.6 676.44 610.6"/><path class="cls-11" d="M656.64,560c0,20-6.65,36.16-14.86,36.16S626.93,580,626.93,560s14.85-36.18,14.85-36.18S656.64,540,656.64,560"/><path class="cls-14" d="M638.37,528.14h0a50.27,50.27,0,0,1,3.41-4.31,50.27,50.27,0,0,0-3.41,4.31"/><path class="cls-15" d="M647.33,531.31h0m0-.07h0m0-.06v0m0-.06,0,0,0,0m-.05-.07v0m0-.06,0,0,0,0m0-.06,0,0,0,0m0-.07a.05.05,0,0,1,0,0,.05.05,0,0,0,0,0m0-.06,0,0,0,0m0-.07,0,0,0,0m0-.05,0,0,0,0m0-.07,0-.05,0,.05m0-.06,0,0,0,0m0-.06,0-.06,0,.06m0-.06c-.55-.83-1.08-1.6-1.57-2.29h0c.49.69,1,1.46,1.57,2.29"/><path class="cls-14" d="M645.2,528.14h0c-1.77-2.46-3.1-4-3.36-4.27.26.3,1.59,1.81,3.36,4.27m-3.37-4.27,0,0,0,0m0,0h0"/><path class="cls-13" d="M641,596.12c-2.74-.36-5.28-2.51-7.42-6h0l0,0v0l0,0v0l0,0,0,0,0,0a.08.08,0,0,1,0,0l0,0a.05.05,0,0,1,0,0l0,0,0,0v0l0,0s0,0,0,0l0,0v0l0-.05h0l0,0h0l0-.06h0l0,0h0l0-.06h0l0-.06h0c-.19-.32-.36-.65-.54-1a39.68,39.68,0,0,1-2.49-6.19,65.38,65.38,0,0,1-2.47-11.79c-.19-1.48-.33-3-.43-4.54h0v-.11h0a.37.37,0,0,1,0-.11h0s0-.07,0-.11h0a.38.38,0,0,0,0-.1h0v-.1h0a.38.38,0,0,1,0-.1h0a.34.34,0,0,0,0-.1v-.13a.28.28,0,0,1,0-.09v0a.31.31,0,0,0,0-.1h0v-.12s0-.06,0-.09v-.13a.38.38,0,0,1,0-.1h0V564a.34.34,0,0,1,0-.1h0v-.11h0l0-.69h0V563h0a.31.31,0,0,0,0-.1v-.26a.25.25,0,0,1,0-.08v-.27a.17.17,0,0,1,0-.07v-.34s0,0,0,0v-.46a.13.13,0,0,0,0-.06v-1.08s0-.06,0-.09V560h0a43.06,43.06,0,0,1,.72-7.7,48.12,48.12,0,0,1,1.54-6.18,61.78,61.78,0,0,1,5.22-11.79,72.64,72.64,0,0,1,4-6.19,50.27,50.27,0,0,1,3.41-4.31h0l0,0,0,0h0c.26.3,1.59,1.81,3.36,4.27.49.69,1,1.46,1.57,2.29h0l0,.06h0l0,0h0l0,.05v0l0,0v0l0,0,0,0,0,0a0,0,0,0,0,0,0,.05.05,0,0,0,0,0l0,0,0,0,0,0,0,0,0,0v0l0,0,0,0a.05.05,0,0,0,0,0v0l0,.06h0a.33.33,0,0,0,0,.06h0c.66,1,1.34,2.14,2,3.34C645.58,539.38,636,553,636,569.05c0,10.77,1.93,20.44,5,27.07"/><polygon class="cls-11" points="644.54 611.28 640.56 611.28 640.56 586.07 644.54 586.07 644.54 611.28 644.54 611.28"/><path class="cls-11" d="M1069.24,609.82c-.87,17.23-2,32.83-3.22,46.14-.17,1.75-.33,3.46-.5,5.13l-7.7,40.7-.2,1.09L641,743.11c-48.2-7.43-97.89-12.26-147.08-3.61-28.95,5.08-57.81,5.76-86.09,3.87-111.48-7.44-208.95-35.21-271.13-8.59-35.66,15.27-87.38-31.49-87.5-31.9A272.07,272.07,0,0,1,42,666.76a156.79,156.79,0,0,1,26.72,4.94c45.79,12.73,64.11-3.64,111.94-15.79,7.65-1.94,15.66-3.86,23.87-5.67,42.49-9.38,90-15.88,117.49-8l1.09.32c32.47,10,100.33,16.34,157.21,11.87l.52,0c57-4.55,158.74-70.95,243.2-39.78,58.32,21.52,121,30.12,175.67,24.69,24.5-2.43,47.37-7.67,67.53-15.84a215.46,215.46,0,0,1,56.22-14.68,174,174,0,0,1,28.65-1A125.31,125.31,0,0,1,1069.24,609.82Z"/><path class="cls-16" d="M1057.82,702.88h-.2v-2.3h.2v2.3Z"/><path class="cls-3" d="M1066,656c-.17,1.75-.33,3.46-.5,5.13-2.46,24.59-11,71.84-13.4,73.94,0,0-34.67-23-207.37,21.52-59.72,15.38-130-2.07-203.73-13.44-48.2-7.43-97.89-12.26-147.08-3.61-28.95,5.08-57.81,5.76-86.09,3.87,22.06-15.81,56.12-40.22,56.42-40.49,5.44-5,42.91-38.12,79.55-38.12,39.61,0,80.22,8.52,132.7,14.51,19.49,2.22,43.2-2,67-7.93,40.21-10,80.5-24.82,100.42-21.11,14.72,2.74,33.5,10.92,55.83,16.89,25.77,6.9,56.27,10.87,90.75.17a236.77,236.77,0,0,1,33-7.34c10.1-1.57,20-2.62,28.65-3.26C1057.26,656.31,1062,656.08,1066,656Z"/><path class="cls-17" d="M805.92,635.93l0,0,0,0m.07-.07c.9-1,1.77-2,2.61-3h0c-.84,1-1.71,2-2.61,3"/><path class="cls-18" d="M788.9,586.38h0m-.57-.35h0m-.12-.08h0m-.13-.08h0m-.05,0h0m-.07,0,0,0,0,0m-.12-.08h0m-.05,0h0m0,0,0,0,0,0m-.07,0,0,0,0,0m-.07,0,0,0,0,0m-.07,0,0,0,0,0m-.06,0,0,0,0,0m-.07,0h0m-.36-.23h0m-.06,0h0m-.06,0h0m-.07,0h0m-.24-.15h0m-.05,0h0m-.07,0h0m-.06,0h0m-.06,0h0m-.07,0h0m-.06,0h0m-.07,0h0m-.17-.11h0m-.06,0h0m-.05,0,0,0,0,0m-.07,0h0m-.06,0h0m-.06,0,0,0,0,0m-.06,0,0,0,0,0m-.07,0s0,0,0,0,0,0,0,0m-.11-.08h0m-.12-.07h0m-.06,0h0m-.07,0h0m-.06,0h0M785,584h0m-.42-.26h0m-.05,0h0m-.06,0h0m-.06,0h0m-.3-.18h0m0,0,0,0,0,0m-.06,0,0,0,0,0m-.06,0h0m-.12-.07,0,0,0,0m-.09,0,0,0,0,0m-.08-.05h0m0,0,0,0,0,0m-.06,0h0m-.06,0h0m-.06,0,0,0,0,0m-.06,0,0,0,0,0m-.06,0,0,0,0,0m-.06,0,0,0,0,0m-.08,0-.05,0,.05,0m-.07,0,0,0,0,0m-.07-.05h0m-.06,0h0m-.06,0h0m-.06,0h0m-.07,0h0m-.34-.2h0m-.5-.31h0m-.06,0h0m-.44-.26h0m-.06,0h0a0,0,0,0,1,0,0m-.06,0h0"/><path class="cls-17" d="M781.07,581.62l-.09,0,.09,0m-.15-.08,0,0,0,0m-.06,0h0m-.06,0h0m-1.17-.69h0m-.06,0,0,0,0,0m-.36-.22h0m-.06,0h0m-.36-.21h0m-.45-.26h0m-.1-.06h0m0,0h0m-.05,0h0m0,0h0m-.35-.19h0m0,0h0m-.38-.22h0m-1.76-1h0m-5-2.69h0m0,0h0m-.12-.06,0,0,0,0m-.06,0,0,0,0,0m-.05,0h0m0,0h0m0,0h0m0,0h0m0,0h0m0,0h0m0,0h0m0,0-.06,0,.06,0m-.06,0h0m0,0h0m0,0h0"/><path class="cls-19" d="M751.68,494.58h0c.38-.21.75-.41,1.12-.59-.37.18-.74.38-1.12.59m1.13-.6h0"/><path class="cls-20" d="M797.19,568.75c0-.19-.06-.37-.08-.55l1.27-.44a9.19,9.19,0,0,1-1.19,1"/><path class="cls-12" d="M808.46,564.08l-.32,0,.31-.11a.66.66,0,0,0,0,.14"/><path class="cls-21" d="M691.49,495.55a23.69,23.69,0,0,0-6.27-.82,28.27,28.27,0,0,0-3.31.2h0a28.27,28.27,0,0,1,3.31-.2,23.69,23.69,0,0,1,6.27.82h0"/><path class="cls-22" d="M671.75,497.41h0a48.87,48.87,0,0,1,10.16-2.48h0a49,49,0,0,0-10.16,2.48"/><path class="cls-23" d="M671.75,469.25h0m.09,0h0"/><path class="cls-24" d="M746.58,466.37c.21.37-.24-.35,0,0Z"/><path class="cls-25" d="M757.89,435.08h0m.1-.06h0m.11,0a27,27,0,0,1,5-2.23h0a27,27,0,0,0-5,2.23"/><path class="cls-26" d="M763.09,432.74h0a27.92,27.92,0,0,1,8.76-1.42,27.92,27.92,0,0,0-8.76,1.42m8.79-1.42h0"/><rect class="cls-8" x="771.88" y="139.69" width="23.62" height="482.58" rx="5.49" ry="5.49"/><rect class="cls-8" x="809.41" y="139.69" width="23.62" height="482.58" rx="5.49" ry="5.49"/><rect class="cls-8" x="848.18" y="139.69" width="23.62" height="482.58" rx="5.49" ry="5.49"/></g><path class="cls-27" d="M275.07,620l-22,9.43c-2,.88-4,1.85-6.13,2.6-6.1,2.19-12.15-.3-14.48-5.87-2.43-5.8,0-12.05,6.12-14.74,11.78-5.2,23.66-10.19,35.46-15.36,14.11-6.17,28.16-12.46,42.27-18.62,2.65-1.15,3.48-2.22,2-5.25q-14-29.25-27.49-58.73c-1.32-2.86-2.86-3.88-6-3.86-20.75.14-41.51.09-62.27.06-6.71,0-11.42-3.68-12.13-9.32-.9-7.12,3.57-12.64,10.76-12.85,7.41-.21,14.82-.06,22.24-.06,18.53,0,37.06.07,55.59-.07,3.11,0,4.69.93,6,3.81,11.41,24.74,23,49.37,34.48,74.1,1.42,3.07,2.8,4.28,6.58,3.82,42.47-5.21,84.87,27.19,91.22,69.6,4.44,29.59-3.78,55.08-25.27,76.11a43.33,43.33,0,0,1-3.64,3.27,11.09,11.09,0,0,1-15.56-1.38,10.9,10.9,0,0,1,.87-15.24c4.75-4.5,9.38-9.07,12.79-14.71,12.33-20.43,13.53-41.58,2.33-62.61s-29.43-31.77-53.18-33.33c-3.86-.25-3.79,1-2.35,3.87,3.48,7,6.75,14.17,10,21.29s1.3,13.47-4.75,16.26-12.16.19-15.47-6.83c-4.17-8.84-8.4-17.66-12.41-26.57-1-2.31-2-2.62-4.25-1.56C303.6,607.83,288.6,635,292,660.12c.13,1,.34,2,.42,3.08.53,6.82-3.69,12-10.23,12.69-5.87.59-11-3.75-11.93-10.15a85.26,85.26,0,0,1,4-41.17C274.71,623.26,275.77,622,275.07,620Z"/><path class="cls-28" d="M25.43,678.93q0-9,0-18c2-23.12,12.6-41.73,30.06-56.58a79.45,79.45,0,0,1,38.7-17.91c4.17-.72,5.26-2.64,5.2-6.56-.17-12.9-.08-25.8-.06-38.7,0-8.43,3.61-12.65,10.77-12.77,6.85-.12,11.23,4.38,11.38,12.51.23,12.9.27,25.81,0,38.71-.09,4.49,1.11,6.36,5.78,7.37,24.89,5.33,43.54,19.48,56.13,41.5,2.13,3.72,4,4.19,7.69,2.41,6.94-3.34,14.07-6.31,21.2-9.24a11.17,11.17,0,0,1,13.87,3.75,10.83,10.83,0,0,1-.34,13.22,11.85,11.85,0,0,1-5,3.56c-8.14,3.59-16.26,7.22-24.47,10.64-2.68,1.11-3.51,2.53-3,5.43a58.62,58.62,0,0,1,.47,9.75c-.05,6.32-4.26,10.94-10.15,11.37-5.45.4-10.89-4.16-11.88-9.94-1-5.61-.94-5.57-6.36-3.16-4.74,2.1-9.48,4.24-14.33,6.09a11,11,0,0,1-14.22-5.55,10.87,10.87,0,0,1,5.31-14.66q9.43-4.5,19.17-8.33c3.65-1.42,3.45-3.22,1.73-6a63,63,0,0,0-37.3-28.41c-3.44-1-4.18.38-4.17,3.42q.09,19.57,0,39.15c0,6.79-2.33,10.65-7.25,12.53a10.74,10.74,0,0,1-14.92-10.09c-.15-13.49,0-27-.06-40.49,0-5.53-.54-5.9-6-4.54-24,6-43.13,28-45.66,52.45-2.75,26.68,7.61,47,30,61.41,4.08,2.63,7.2,5.8,6.88,11.07-.53,8.7-9.16,13.41-16.91,9-17.32-9.93-29.87-24.14-37.11-42.82C27.83,693.56,25.7,686.44,25.43,678.93Z"/><path class="cls-9" d="M161.68,710c16.26.19,29.32,5.9,40.19,16.74,7.73,7.71,15.52,15.35,23.1,23.21,2.11,2.19,3.22,2.08,5.3,0,17.89-18.07,35.93-36,53.88-54,31-31.1,81.75-18.12,93.25,24.18,5.28,19.4.78,37.31-13.31,51.67q-48.94,49.88-98.79,98.88c-20.92,20.66-55.39,20-76.79-1.19-21.87-21.62-43.71-43.27-65.19-65.27-15.79-16.18-20.48-35.67-13.15-57.06,7.18-20.94,22.6-32.93,44.39-36.64A59.07,59.07,0,0,1,161.68,710Zm65.52,57.91c-11.65-11.7-23-23.66-35-35a44,44,0,0,0-61,.74c-16.92,16.75-17.94,44-1.31,61.27q33.43,34.62,68,68.07c16.82,16.27,43.55,15.5,60.37-.81q7.88-7.63,15.56-15.5a60.32,60.32,0,0,0,4.11-5.13c1.33-.09,2.07-1.08,2.91-1.92q37.43-37.43,74.82-74.86c9.79-9.86,14-22.07,12.29-35.75-2.27-17.9-12.09-30.71-29.24-36.58-17.53-6-33.36-2-46.59,11.14-18.69,18.59-37.26,37.3-56,55.89C233.26,762.37,230.72,765.67,227.2,767.92Z"/><path class="cls-3" d="M227.2,767.92c3.52-2.25,6.06-5.55,9-8.45,18.69-18.59,37.26-37.3,56-55.89,13.23-13.17,29.06-17.12,46.59-11.14,17.15,5.87,27,18.68,29.24,36.58,1.73,13.68-2.5,25.89-12.29,35.75q-37.31,37.54-74.82,74.86c-.84.84-1.58,1.83-2.91,1.92-.87-1.23.06-2.29.35-3.38a22,22,0,0,0-9.48-24.65A21.67,21.67,0,0,0,242,816.3c-2,1.91-3.91,4-6,5.85a22.09,22.09,0,0,1-33.74-5.43c-5-8.59-3.59-19.29,3.59-26.84S220.62,775.78,227.2,767.92Z"/><path class="cls-11" d="M227.2,767.92c-6.58,7.86-14.35,14.56-21.4,22s-8.63,18.25-3.59,26.84A22.09,22.09,0,0,0,236,822.15c2.09-1.84,4-3.94,6-5.85a21.67,21.67,0,0,1,26.85-2.78,22,22,0,0,1,9.48,24.65c-.29,1.09-1.22,2.15-.35,3.38a60.32,60.32,0,0,1-4.11,5.13q-7.68,7.85-15.56,15.5c-16.82,16.31-43.55,17.08-60.37.81q-34.59-33.45-68-68.07c-16.63-17.23-15.61-44.52,1.31-61.27a44,44,0,0,1,61-.74C204.17,744.26,215.55,756.22,227.2,767.92Z"/><rect class="cls-29" width="1080" height="885.76"/></g></g></svg>