<svg xmlns="http://www.w3.org/2000/svg" viewBox="0 0 356.03 222.05"><defs><style>.cls-1{fill:#1b1464;}.cls-2{fill:#0dd6fa;}</style></defs><title>emprestimo</title><g id="Camada_2" data-name="Camada 2"><g id="Camada_2-2" data-name="Camada 2"><path class="cls-1" d="M215.14,114.29l-18.91,8.13c-1.76.76-3.49,1.6-5.29,2.24-5.26,1.89-10.47-.26-12.47-5.06-2.1-5,0-10.38,5.27-12.69,10.15-4.49,20.39-8.79,30.55-13.24,12.16-5.32,24.27-10.74,36.43-16,2.28-1,3-1.91,1.75-4.52q-12-25.21-23.69-50.61c-1.13-2.47-2.45-3.34-5.15-3.32-17.89.11-35.77.07-53.66,0-5.79,0-9.84-3.18-10.46-8C158.74,5.05,162.59.3,168.79.12,175.17-.07,181.56.06,188,.06c16,0,31.94.06,47.91-.06,2.67,0,4,.8,5.18,3.28,9.83,21.32,19.85,42.55,29.71,63.86,1.22,2.64,2.42,3.68,5.67,3.28,36.6-4.48,73.13,23.43,78.61,60,3.82,25.5-3.26,47.46-21.78,65.58a39.63,39.63,0,0,1-3.13,2.82,9.57,9.57,0,0,1-13.42-1.18,9.41,9.41,0,0,1,.76-13.14c4.09-3.88,8.08-7.82,11-12.68,10.63-17.6,11.67-35.82,2-53.94s-25.37-27.38-45.83-28.73c-3.32-.22-3.27.83-2,3.34,3,6.06,5.82,12.21,8.65,18.34s1.13,11.61-4.08,14-10.49.16-13.34-5.89c-3.59-7.62-7.23-15.22-10.69-22.89-.9-2-1.69-2.27-3.67-1.35-19.77,9.15-32.69,32.57-29.8,54.21.12.88.3,1.76.37,2.65.45,5.88-3.19,10.38-8.83,10.94-5.05.5-9.46-3.23-10.27-8.75a73.38,73.38,0,0,1,3.46-35.47C214.83,117.15,215.75,116.07,215.14,114.29Z"/><path class="cls-2" d="M0,165.11l0-15.5c1.73-19.92,10.86-36,25.9-48.75A68.5,68.5,0,0,1,59.25,85.43c3.59-.62,4.53-2.28,4.48-5.65-.15-11.12-.07-22.24,0-33.35,0-7.26,3.11-10.9,9.27-11,5.91-.1,9.69,3.78,9.81,10.79.21,11.11.23,22.24,0,33.35-.08,3.87.95,5.48,5,6.35,21.44,4.59,37.51,16.79,48.36,35.76,1.84,3.21,3.44,3.61,6.63,2.08,6-2.88,12.12-5.44,18.26-8A9.63,9.63,0,0,1,173,119a9.35,9.35,0,0,1-.29,11.4,10.26,10.26,0,0,1-4.33,3.07c-7,3.09-14,6.22-21.09,9.16-2.3,1-3,2.18-2.61,4.68a50.12,50.12,0,0,1,.41,8.41c0,5.44-3.67,9.43-8.75,9.79-4.69.34-9.38-3.58-10.23-8.57-.83-4.83-.81-4.79-5.49-2.72-4.08,1.82-8.17,3.66-12.34,5.25A9.51,9.51,0,0,1,96,154.7a9.39,9.39,0,0,1,4.58-12.64c5.42-2.58,10.93-5,16.52-7.17,3.14-1.23,3-2.77,1.49-5.19a54.28,54.28,0,0,0-32.14-24.48c-3-.87-3.6.33-3.59,3q.08,16.86,0,33.73c0,5.85-2,9.18-6.25,10.8A9.26,9.26,0,0,1,63.72,144c-.12-11.63,0-23.26,0-34.89,0-4.77-.47-5.09-5.16-3.91-20.63,5.17-37.16,24.1-39.34,45.19-2.37,23,6.56,40.51,25.87,52.92,3.52,2.26,6.21,5,5.93,9.54-.46,7.49-7.9,11.55-14.58,7.72-14.91-8.56-25.73-20.8-32-36.9C2.1,177.72.26,171.59,0,165.11Z"/></g></g></svg>