<svg xmlns="http://www.w3.org/2000/svg" viewBox="0 0 8.3 8"><defs><style>.cls-1{fill:#1b1464;}.cls-2{fill:#0dd6fa;}.cls-3{fill:#fff;}</style></defs><title>logo_1</title><g id="Camada_2" data-name="Camada 2"><g id="Camada_2-2" data-name="Camada 2"><path class="cls-1" d="M5,2.66l-.45.19-.12.06a.23.23,0,0,1-.29-.12.23.23,0,0,1,.12-.3L5,2.18l.85-.37c.05,0,.07,0,0-.11C5.7,1.31,5.52.92,5.33.52c0-.05,0-.07-.12-.07H4A.22.22,0,0,1,3.72.26.22.22,0,0,1,3.94,0H5.5a.12.12,0,0,1,.12.08l.69,1.49a.11.11,0,0,0,.13.07A1.71,1.71,0,0,1,8.28,3a1.69,1.69,0,0,1-.51,1.53l-.07.06a.22.22,0,1,1-.3-.33A1.42,1.42,0,0,0,7.66,4a1.22,1.22,0,0,0,0-1.26,1.25,1.25,0,0,0-1.07-.67c-.08,0-.08,0,0,.08s.14.28.2.42a.23.23,0,0,1-.09.33.23.23,0,0,1-.32-.14l-.24-.53c0-.05,0-.05-.09,0a1.25,1.25,0,0,0-.69,1.26v.06a.22.22,0,0,1-.2.26.23.23,0,0,1-.24-.21A1.64,1.64,0,0,1,5,2.76.15.15,0,0,0,5,2.66Z"/><path class="cls-2" d="M0,3.85V3.49A1.63,1.63,0,0,1,.6,2.35,1.64,1.64,0,0,1,1.38,2c.09,0,.11-.05.11-.13,0-.26,0-.52,0-.78S1.56.83,1.7.83s.23.08.23.25v.77c0,.1,0,.13.12.15a1.63,1.63,0,0,1,1.12.84c.05.07.08.08.16.05l.42-.19A.23.23,0,0,1,4,2.77.23.23,0,0,1,4,3a.19.19,0,0,1-.11.07l-.49.22a.08.08,0,0,0-.06.1,1.41,1.41,0,0,1,0,.2.21.21,0,0,1-.2.23.24.24,0,0,1-.24-.2c0-.11,0-.11-.13-.06l-.29.12a.22.22,0,0,1-.28-.11.23.23,0,0,1,.1-.3l.39-.17c.07,0,.07-.06,0-.12A1.28,1.28,0,0,0,2,2.45c-.06,0-.08,0-.08.07v.79a.24.24,0,0,1-.14.25.21.21,0,0,1-.3-.2c0-.27,0-.54,0-.82,0-.11,0-.11-.12-.09A1.24,1.24,0,0,0,.45,3.51a1.21,1.21,0,0,0,.6,1.23A.26.26,0,0,1,1.19,5a.22.22,0,0,1-.34.18A1.66,1.66,0,0,1,.1,4.28,1.58,1.58,0,0,1,0,3.85Z"/><path class="cls-3" d="M2.74,4.47a1.15,1.15,0,0,1,.81.34L4,5.28s.06,0,.11,0L5.2,4.19a1.1,1.1,0,0,1,1.87.49,1,1,0,0,1-.27,1c-.65.67-1.31,1.33-2,2a1.1,1.1,0,0,1-1.54,0L2,6.37A1.08,1.08,0,0,1,1.7,5.22a1.1,1.1,0,0,1,.89-.74ZM4.05,5.64c-.23-.24-.46-.48-.7-.71A.9.9,0,0,0,2.12,5a.87.87,0,0,0,0,1.23c.45.46.9.92,1.37,1.37a.87.87,0,0,0,1.21,0L5,7.22l.08-.1.06,0L6.64,5.57a.81.81,0,0,0,.24-.71.84.84,0,0,0-.59-.74.85.85,0,0,0-.93.22L4.23,5.47A.74.74,0,0,1,4.05,5.64Z"/><path class="cls-1" d="M4.05,5.64a.74.74,0,0,0,.18-.17L5.36,4.34a.85.85,0,0,1,.93-.22.84.84,0,0,1,.59.74.81.81,0,0,1-.24.71L5.13,7.08l-.06,0a.08.08,0,0,1,0-.07.45.45,0,0,0-.19-.5.44.44,0,0,0-.54.06l-.12.12a.45.45,0,0,1-.68-.11.46.46,0,0,1,.07-.54A5.93,5.93,0,0,0,4.05,5.64Z"/><path class="cls-2" d="M4.05,5.64a5.93,5.93,0,0,1-.43.44.46.46,0,0,0-.07.54.45.45,0,0,0,.68.11l.12-.12a.44.44,0,0,1,.54-.06.45.45,0,0,1,.19.5.08.08,0,0,0,0,.07L5,7.22l-.31.31a.87.87,0,0,1-1.21,0C3,7.1,2.55,6.64,2.1,6.18A.87.87,0,0,1,2.12,5a.9.9,0,0,1,1.23,0C3.59,5.16,3.82,5.4,4.05,5.64Z"/></g></g></svg>