<svg width="28" height="17" viewBox="0 0 28 17" fill="none" xmlns="http://www.w3.org/2000/svg">
<path d="M16.4373 8.75044L14.9925 9.3729C14.858 9.43109 14.7259 9.4954 14.5883 9.5444C14.1865 9.68911 13.7884 9.5245 13.6356 9.15699C13.4752 8.77417 13.6356 8.36226 14.0382 8.1854C14.8137 7.84163 15.5961 7.51241 16.3723 7.1717C17.3014 6.76438 18.2266 6.34941 19.1557 5.94669C19.3299 5.87012 19.3849 5.80045 19.2894 5.60062C18.6782 4.31384 18.0748 3.02222 17.4794 1.72574C17.3931 1.53663 17.2922 1.47002 17.0859 1.47155C15.7191 1.47997 14.353 1.47691 12.9862 1.47155C12.5438 1.47155 12.2344 1.22808 12.187 0.859042C12.1282 0.386646 12.4223 0.022969 12.896 0.00918762C13.3835 -0.00535944 13.8717 0.00459381 14.3637 0.00459381C15.5862 0.00459381 16.804 0.00918762 18.0241 0C18.2281 0 18.3298 0.0612508 18.4199 0.251128C19.1709 1.88346 19.9365 3.5089 20.6898 5.14047C20.783 5.3426 20.8747 5.42223 21.123 5.3916C23.9193 5.0486 26.7103 7.18548 27.129 9.98541C27.4209 11.9378 26.8799 13.6191 25.465 15.0064C25.3891 15.0826 25.3093 15.1547 25.2258 15.2224C25.0775 15.3458 24.8866 15.4055 24.6946 15.3886C24.5026 15.3717 24.325 15.2795 24.2005 15.132C24.077 14.99 24.014 14.8052 24.0248 14.6171C24.0357 14.4291 24.1196 14.2528 24.2586 14.126C24.5711 13.8289 24.8759 13.5272 25.099 13.1551C25.9111 11.8076 25.9906 10.4126 25.2518 9.0253C24.513 7.63797 23.3135 6.92899 21.7503 6.82563C21.4966 6.80879 21.5004 6.88918 21.5975 7.08136C21.8267 7.54533 22.0421 8.0162 22.2584 8.48553C22.4746 8.95486 22.3447 9.37443 21.9466 9.55742C21.5486 9.74041 21.1452 9.56967 20.9274 9.10646C20.6531 8.52305 20.375 7.94116 20.1107 7.35392C20.0419 7.2008 19.9816 7.18012 19.8303 7.25056C18.3198 7.95112 17.3327 9.74423 17.5535 11.4011C17.5627 11.4684 17.5764 11.5358 17.5818 11.604C17.6162 12.0542 17.3381 12.3987 16.9071 12.4416C16.5213 12.4798 16.1844 12.1943 16.1225 11.7716C15.9866 10.8584 16.0774 9.92564 16.3869 9.05593C16.4136 8.96941 16.4839 8.88672 16.4373 8.75044Z" fill="black" fill-opacity="0.57"/>
<path d="M0 12.6418V11.4551C0.132176 9.92991 0.829728 8.69877 1.97882 7.72258C2.70493 7.10359 3.58598 6.6951 4.52683 6.54121C4.80111 6.49374 4.87293 6.36664 4.86911 6.10862C4.85765 5.25724 4.86376 4.40585 4.86911 3.55523C4.86911 2.99938 5.10672 2.72069 5.57736 2.71304C6.0289 2.70538 6.3177 3.00245 6.32687 3.53915C6.34291 4.38978 6.34444 5.24193 6.32687 6.09255C6.32075 6.38885 6.39945 6.51211 6.70888 6.57872C8.34694 6.93015 9.57472 7.86423 10.4037 9.31663C10.5443 9.5624 10.6665 9.59303 10.9102 9.47589C11.3686 9.25538 11.8362 9.05938 12.3053 8.86338C12.4623 8.79077 12.6397 8.77583 12.8065 8.82119C12.9733 8.86655 13.1188 8.96931 13.2176 9.11144C13.3105 9.23901 13.3587 9.39377 13.3547 9.55163C13.3506 9.7095 13.2947 9.8616 13.1954 9.98427C13.1076 10.0903 12.9935 10.1714 12.8646 10.2193C12.3298 10.4559 11.795 10.6955 11.2533 10.9206C11.0776 10.9972 11.0241 11.0875 11.0539 11.279C11.0823 11.4923 11.0928 11.7077 11.0852 11.9229C11.0852 12.3394 10.8048 12.6448 10.4167 12.6724C10.0583 12.6984 9.70002 12.3983 9.63508 12.0163C9.57167 11.6465 9.5732 11.6495 9.21563 11.808C8.90391 11.9474 8.59143 12.0882 8.27283 12.21C8.09964 12.2822 7.90527 12.2846 7.7304 12.2165C7.55552 12.1485 7.4137 12.0152 7.33461 11.8448C7.29295 11.7584 7.26896 11.6646 7.26406 11.5688C7.25915 11.473 7.27342 11.3772 7.30602 11.287C7.33863 11.1968 7.38892 11.1141 7.45393 11.0436C7.51893 10.9732 7.59734 10.9166 7.68453 10.877C8.09863 10.6795 8.51961 10.4942 8.9467 10.328C9.1866 10.2339 9.1759 10.116 9.06054 9.93067C8.51317 9.01256 7.63366 8.34125 6.60497 8.0564C6.37576 7.98979 6.32992 8.08167 6.33069 8.28609C6.33476 9.14666 6.33476 10.0075 6.33069 10.8686C6.33069 11.3165 6.17788 11.5714 5.85317 11.6955C5.7442 11.742 5.62529 11.7604 5.50737 11.749C5.38944 11.7375 5.27628 11.6966 5.17826 11.6299C5.08023 11.5632 5.00049 11.473 4.94634 11.3674C4.89219 11.2618 4.86537 11.1442 4.86835 11.0255C4.85918 10.1351 4.86835 9.24466 4.86835 8.35423C4.86835 7.98902 4.83244 7.96452 4.47411 8.05487C2.89794 8.4507 1.63501 9.90005 1.46845 11.5148C1.28738 13.2757 1.96965 14.6164 3.44497 15.5665C3.71391 15.7395 3.91943 15.9493 3.89804 16.2969C3.8629 16.8704 3.29446 17.1812 2.7841 16.888C1.64494 16.2326 0.818268 15.2955 0.339226 14.0628C0.160445 13.6073 0.0198646 13.1379 0 12.6418Z" fill="black" fill-opacity="0.57"/>
</svg>
