<svg width="88" height="55" viewBox="0 0 88 55" fill="none" xmlns="http://www.w3.org/2000/svg">
<g clip-path="url(#clip0)">
<path d="M53.1763 28.3087L48.5023 30.3224C48.0673 30.5107 47.6397 30.7188 47.1948 30.8773C45.8947 31.3454 44.6069 30.8129 44.1126 29.624C43.5935 28.3855 44.1126 27.0529 45.4152 26.4807C47.9239 25.3686 50.455 24.3035 52.9662 23.2013C55.9718 21.8836 58.965 20.5411 61.9706 19.2382C62.5342 18.9905 62.7121 18.7651 62.4032 18.1187C60.4258 13.9558 58.474 9.77723 56.5477 5.58298C56.2684 4.97118 55.9421 4.75569 55.2748 4.76064C50.8529 4.78789 46.4335 4.77798 42.0116 4.76064C40.5805 4.76064 39.5795 3.97298 39.4262 2.7791C39.2359 1.25084 40.1875 0.0743076 41.72 0.029723C43.2969 -0.0173384 44.8763 0.0148615 46.4681 0.0148615C50.4228 0.0148615 54.3627 0.029723 58.31 0C58.97 0 59.2987 0.198154 59.5904 0.81243C62.02 6.09322 64.4967 11.3517 66.9338 16.63C67.2353 17.2839 67.5319 17.5415 68.3352 17.4425C77.3817 16.3328 86.4108 23.2459 87.7653 32.304C88.7095 38.6201 86.9595 44.0594 82.3819 48.5476C82.1366 48.794 81.8783 49.0272 81.6083 49.2461C81.1286 49.6454 80.5109 49.8387 79.8898 49.7839C79.2686 49.7292 78.6941 49.4309 78.2913 48.9538C77.8918 48.4944 77.6878 47.8965 77.7229 47.2881C77.758 46.6798 78.0295 46.1094 78.4791 45.6992C79.49 44.7381 80.4762 43.7622 81.198 42.5584C83.8254 38.1991 84.0825 33.6861 81.6923 29.1979C79.3022 24.7097 75.4216 22.4161 70.3645 22.0817C69.5439 22.0272 69.5563 22.2873 69.8702 22.909C70.6117 24.41 71.3087 25.9333 72.0082 27.4517C72.7077 28.9701 72.2875 30.3274 70.9997 30.9194C69.712 31.5114 68.4069 30.959 67.7025 29.4605C66.8151 27.5731 65.9154 25.6906 65.0602 23.7908C64.8378 23.2954 64.6425 23.2286 64.1531 23.4564C59.2666 25.7228 56.0731 31.5238 56.7875 36.8838C56.8171 37.1018 56.8616 37.3197 56.8789 37.5402C56.9901 38.9966 56.0904 40.1112 54.6964 40.2499C53.4482 40.3738 52.3582 39.4499 52.158 38.0826C51.7183 35.1282 52.012 32.1106 53.0132 29.297C53.0997 29.0171 53.3271 28.7496 53.1763 28.3087Z" fill="#1B1464"/>
<path d="M0 40.8965V37.0573C0.427604 32.1233 2.68427 28.1404 6.40171 24.9823C8.75078 22.9798 11.6011 21.6583 14.6448 21.1605C15.5322 21.0069 15.7645 20.5957 15.7522 19.761C15.7151 17.0067 15.7349 14.2523 15.7522 11.5005C15.7522 9.70223 16.5209 8.80063 18.0434 8.77586C19.5042 8.75109 20.4385 9.71213 20.4682 11.4485C20.5201 14.2003 20.525 16.9571 20.4682 19.709C20.4484 20.6675 20.703 21.0663 21.704 21.2818C27.0033 22.4187 30.9754 25.4406 33.6572 30.1393C34.112 30.9344 34.5074 31.0335 35.2959 30.6545C36.7789 29.9411 38.2916 29.307 39.8092 28.673C40.3169 28.438 40.8908 28.3897 41.4304 28.5365C41.9701 28.6832 42.4409 29.0156 42.7604 29.4755C43.061 29.8882 43.2169 30.3888 43.2039 30.8995C43.1909 31.4102 43.0098 31.9023 42.6888 32.2992C42.4048 32.6423 42.0356 32.9046 41.6185 33.0596C39.8883 33.8249 38.1581 34.6002 36.4057 35.3284C35.8372 35.5761 35.6642 35.8684 35.7606 36.4876C35.8526 37.1779 35.8865 37.8747 35.8619 38.5707C35.8619 39.9182 34.9548 40.9065 33.6992 40.9956C32.54 41.0798 31.3807 40.1089 31.1706 38.8729C30.9655 37.6766 30.9704 37.6865 29.8137 38.1992C28.8052 38.65 27.7943 39.1057 26.7636 39.4996C26.2033 39.7334 25.5745 39.741 25.0088 39.5208C24.443 39.3006 23.9842 38.8696 23.7283 38.3181C23.5936 38.0387 23.516 37.7351 23.5001 37.4252C23.4842 37.1153 23.5304 36.8053 23.6359 36.5136C23.7413 36.2218 23.904 35.9541 24.1143 35.7264C24.3246 35.4986 24.5783 35.3153 24.8604 35.1872C26.2 34.5482 27.5619 33.9488 28.9436 33.4113C29.7197 33.1066 29.6851 32.7252 29.3119 32.1258C27.5411 29.1556 24.6958 26.9838 21.3679 26.0623C20.6264 25.8468 20.4781 26.144 20.4805 26.8054C20.4937 29.5894 20.4937 32.3743 20.4805 35.16C20.4805 36.609 19.9862 37.4338 18.9357 37.8351C18.5832 37.9858 18.1985 38.0453 17.817 38.0083C17.4355 37.9712 17.0694 37.8388 16.7523 37.623C16.4352 37.4073 16.1772 37.1152 16.002 36.7736C15.8268 36.432 15.7401 36.0517 15.7497 35.6678C15.72 32.7871 15.7497 29.9065 15.7497 27.0258C15.7497 25.8443 15.6335 25.765 14.4743 26.0573C9.37517 27.3379 5.28944 32.0267 4.75061 37.2505C4.16482 42.9474 6.37205 47.2845 11.1449 50.3584C12.0149 50.9182 12.6798 51.5968 12.6106 52.7214C12.4969 54.5766 10.658 55.5822 9.00688 54.6335C5.32157 52.5133 2.64719 49.4816 1.09744 45.4937C0.519057 44.0199 0.0642642 42.5016 0 40.8965Z" fill="#1B1464"/>
</g>
<defs>
<clipPath id="clip0">
<rect width="88" height="55" fill="white"/>
</clipPath>
</defs>
</svg>
