<svg width="88" height="55" viewBox="0 0 88 55" fill="none" xmlns="http://www.w3.org/2000/svg">
<g clip-path="url(#clip0)">
<path d="M53.1762 28.3087L48.5022 30.3224C48.0672 30.5107 47.6396 30.7188 47.1947 30.8773C45.8945 31.3454 44.6068 30.8129 44.1125 29.624C43.5934 28.3855 44.1125 27.0529 45.415 26.4807C47.9238 25.3686 50.4548 24.3035 52.9661 23.2013C55.9717 21.8836 58.9649 20.5411 61.9705 19.2382C62.534 18.9905 62.712 18.7651 62.403 18.1187C60.4257 13.9558 58.4739 9.77723 56.5476 5.58298C56.2683 4.97118 55.942 4.75569 55.2747 4.76064C50.8528 4.78789 46.4334 4.77798 42.0115 4.76064C40.5804 4.76064 39.5793 3.97298 39.4261 2.7791C39.2358 1.25084 40.1874 0.0743076 41.7198 0.029723C43.2968 -0.0173384 44.8762 0.0148615 46.468 0.0148615C50.4227 0.0148615 54.3626 0.029723 58.3099 0C58.9698 0 59.2986 0.198154 59.5902 0.81243C62.0199 6.09322 64.4966 11.3517 66.9337 16.63C67.2352 17.2839 67.5318 17.5415 68.3351 17.4425C77.3815 16.3328 86.4107 23.2459 87.7652 32.304C88.7094 38.6201 86.9594 44.0594 82.3818 48.5476C82.1365 48.794 81.8782 49.0272 81.6082 49.2461C81.1285 49.6454 80.5108 49.8387 79.8896 49.7839C79.2684 49.7292 78.694 49.4309 78.2911 48.9538C77.8917 48.4944 77.6876 47.8965 77.7228 47.2881C77.7579 46.6798 78.0293 46.1094 78.479 45.6992C79.4899 44.7381 80.4761 43.7622 81.1979 42.5584C83.8253 38.1991 84.0823 33.6861 81.6922 29.1979C79.3021 24.7097 75.4215 22.4161 70.3644 22.0817C69.5438 22.0272 69.5561 22.2873 69.87 22.909C70.6116 24.41 71.3086 25.9333 72.0081 27.4517C72.7076 28.9701 72.2874 30.3274 70.9996 30.9194C69.7119 31.5114 68.4068 30.959 67.7024 29.4605C66.815 27.5731 65.9153 25.6906 65.0601 23.7908C64.8377 23.2954 64.6424 23.2286 64.153 23.4564C59.2664 25.7228 56.073 31.5238 56.7873 36.8838C56.817 37.1018 56.8615 37.3197 56.8788 37.5402C56.99 38.9966 56.0903 40.1112 54.6963 40.2499C53.4481 40.3738 52.358 39.4499 52.1578 38.0826C51.7181 35.1282 52.0119 32.1106 53.013 29.297C53.0996 29.0171 53.327 28.7496 53.1762 28.3087Z" fill="#0DD6FA"/>
<path d="M0 40.8965V37.0573C0.427604 32.1233 2.68427 28.1404 6.40171 24.9823C8.75078 22.9798 11.6011 21.6583 14.6448 21.1605C15.5322 21.0069 15.7645 20.5957 15.7522 19.761C15.7151 17.0067 15.7349 14.2523 15.7522 11.5005C15.7522 9.70223 16.5209 8.80063 18.0434 8.77586C19.5042 8.75109 20.4385 9.71213 20.4682 11.4485C20.5201 14.2003 20.525 16.9571 20.4682 19.709C20.4484 20.6675 20.703 21.0663 21.704 21.2818C27.0033 22.4187 30.9754 25.4406 33.6572 30.1393C34.112 30.9344 34.5074 31.0335 35.2959 30.6545C36.7789 29.9411 38.2916 29.307 39.8092 28.673C40.3169 28.438 40.8908 28.3897 41.4304 28.5365C41.9701 28.6832 42.4409 29.0156 42.7604 29.4755C43.061 29.8882 43.2169 30.3888 43.2039 30.8995C43.1909 31.4102 43.0098 31.9023 42.6888 32.2992C42.4048 32.6423 42.0356 32.9046 41.6185 33.0596C39.8883 33.8249 38.1581 34.6002 36.4057 35.3284C35.8372 35.5761 35.6642 35.8684 35.7606 36.4876C35.8526 37.1779 35.8865 37.8747 35.8619 38.5707C35.8619 39.9182 34.9548 40.9065 33.6992 40.9956C32.54 41.0798 31.3807 40.1089 31.1706 38.8729C30.9655 37.6766 30.9704 37.6865 29.8137 38.1992C28.8052 38.65 27.7943 39.1057 26.7636 39.4996C26.2033 39.7334 25.5745 39.741 25.0088 39.5208C24.443 39.3006 23.9842 38.8696 23.7283 38.3181C23.5936 38.0387 23.516 37.7351 23.5001 37.4252C23.4842 37.1153 23.5304 36.8053 23.6359 36.5136C23.7413 36.2218 23.904 35.9541 24.1143 35.7264C24.3246 35.4986 24.5783 35.3153 24.8604 35.1872C26.2 34.5482 27.5619 33.9488 28.9436 33.4113C29.7197 33.1066 29.6851 32.7252 29.3119 32.1258C27.5411 29.1556 24.6958 26.9838 21.3679 26.0623C20.6264 25.8468 20.4781 26.144 20.4805 26.8054C20.4937 29.5894 20.4937 32.3743 20.4805 35.16C20.4805 36.609 19.9862 37.4338 18.9357 37.8351C18.5832 37.9858 18.1985 38.0453 17.817 38.0083C17.4355 37.9712 17.0694 37.8388 16.7523 37.623C16.4352 37.4073 16.1772 37.1152 16.002 36.7736C15.8268 36.432 15.7401 36.0517 15.7497 35.6678C15.72 32.7871 15.7497 29.9065 15.7497 27.0258C15.7497 25.8443 15.6335 25.765 14.4743 26.0573C9.37517 27.3379 5.28944 32.0267 4.75061 37.2505C4.16482 42.9474 6.37205 47.2845 11.1449 50.3584C12.0149 50.9182 12.6798 51.5968 12.6106 52.7214C12.4969 54.5766 10.658 55.5822 9.00688 54.6335C5.32157 52.5133 2.64719 49.4816 1.09744 45.4937C0.519057 44.0199 0.0642642 42.5016 0 40.8965Z" fill="#0DD6FA"/>
</g>
<defs>
<clipPath id="clip0">
<rect width="88" height="55" fill="white"/>
</clipPath>
</defs>
</svg>
